<svg xmlns="http://www.w3.org/2000/svg" xmlns:xlink="http://www.w3.org/1999/xlink" version="1.1" width="256" height="256" viewBox="0 0 256 256" xml:space="preserve">
<desc>Created with Fabric.js 1.7.22</desc>
<defs>
</defs>
<g transform="translate(128 128) scale(1.21 1.21)" style="">
	<g style="stroke: none; stroke-width: 0; stroke-dasharray: none; stroke-linecap: butt; stroke-linejoin: miter; stroke-miterlimit: 10; fill: none; fill-rule: nonzero; opacity: 1;" transform="translate(-104.85 -104.85000000000001) scale(2.33 2.33)" >
	<path d="M 58.812 55.408 c -0.657 0 -1.303 0.047 -1.941 0.121 V 25.217 c 3.048 -0.298 5.43 -2.867 5.43 -5.994 v -0.922 C 62.301 8.746 54.555 1 45 1 S 27.699 8.746 27.699 18.301 v 0.922 c 0 3.126 2.382 5.695 5.43 5.994 v 30.312 c -0.638 -0.073 -1.283 -0.121 -1.941 -0.121 c -9.276 0 -16.796 7.52 -16.796 16.796 C 14.392 81.48 21.912 89 31.188 89 c 5.728 0 10.78 -2.872 13.812 -7.25 C 48.032 86.128 53.083 89 58.812 89 c 9.276 0 16.796 -7.52 16.796 -16.796 C 75.608 62.928 68.088 55.408 58.812 55.408 z" style="stroke: none; stroke-width: 1; stroke-dasharray: none; stroke-linecap: butt; stroke-linejoin: miter; stroke-miterlimit: 10; fill: rgb(232,171,0); fill-rule: nonzero; opacity: 1;" transform=" matrix(1 0 0 1 0 0) " stroke-linecap="round" />
	<path d="M 58.812 90 C 53.436 90 48.368 87.562 45 83.415 C 41.631 87.562 36.563 90 31.188 90 c -9.813 0 -17.796 -7.983 -17.796 -17.796 s 7.983 -17.796 17.796 -17.796 c 0.305 0 0.617 0.01 0.94 0.028 V 25.217 c 0 -0.55 0.445 -0.997 0.995 -1 l 23.743 -0.122 c 0.001 0 0.003 0 0.005 0 c 0.265 0 0.518 0.104 0.705 0.291 c 0.188 0.188 0.295 0.443 0.295 0.709 v 29.341 c 0.323 -0.019 0.636 -0.028 0.94 -0.028 c 9.813 0 17.796 7.983 17.796 17.796 S 68.624 90 58.812 90 z M 45 80.75 L 45 80.75 c 0.328 0 0.635 0.161 0.822 0.431 C 48.778 85.451 53.635 88 58.812 88 c 8.71 0 15.796 -7.086 15.796 -15.796 s -7.086 -15.796 -15.796 -15.796 c -0.563 0 -1.161 0.037 -1.826 0.113 c -0.283 0.036 -0.567 -0.058 -0.78 -0.247 c -0.212 -0.189 -0.334 -0.461 -0.334 -0.746 V 26.101 l -21.742 0.112 v 29.316 c 0 0.285 -0.122 0.557 -0.334 0.746 s -0.499 0.283 -0.78 0.247 c -0.666 -0.076 -1.263 -0.113 -1.826 -0.113 c -8.71 0 -15.796 7.086 -15.796 15.796 S 22.479 88 31.188 88 c 5.177 0 10.032 -2.549 12.989 -6.819 C 44.365 80.911 44.672 80.75 45 80.75 z" style="stroke: none; stroke-width: 1; stroke-dasharray: none; stroke-linecap: butt; stroke-linejoin: miter; stroke-miterlimit: 10; fill: rgb(0,0,0); fill-rule: nonzero; opacity: 1;" transform=" matrix(1 0 0 1 0 0) " stroke-linecap="round" />
	<path d="M 56.277 26.247 H 33.723 c -3.873 0 -7.024 -3.151 -7.024 -7.024 v -0.922 C 26.699 8.21 34.909 0 45 0 c 10.091 0 18.301 8.21 18.301 18.301 v 0.922 C 63.301 23.096 60.15 26.247 56.277 26.247 z M 45 2 c -8.989 0 -16.301 7.313 -16.301 16.301 v 0.922 c 0 2.77 2.254 5.024 5.024 5.024 h 22.555 c 2.77 0 5.023 -2.254 5.023 -5.024 v -0.922 C 61.301 9.313 53.988 2 45 2 z" style="stroke: none; stroke-width: 1; stroke-dasharray: none; stroke-linecap: butt; stroke-linejoin: miter; stroke-miterlimit: 10; fill: rgb(0,0,0); fill-rule: nonzero; opacity: 1;" transform=" matrix(1 0 0 1 0 0) " stroke-linecap="round" />
	<path d="M 45 9.193 c -0.552 0 -1 -0.448 -1 -1 V 1 c 0 -0.552 0.448 -1 1 -1 s 1 0.448 1 1 v 7.193 C 46 8.745 45.552 9.193 45 9.193 z" style="stroke: none; stroke-width: 1; stroke-dasharray: none; stroke-linecap: butt; stroke-linejoin: miter; stroke-miterlimit: 10; fill: rgb(0,0,0); fill-rule: nonzero; opacity: 1;" transform=" matrix(1 0 0 1 0 0) " stroke-linecap="round" />
</g>
</g>
</svg>